<svg xmlns="http://www.w3.org/2000/svg" viewBox="0 0 32 32" shape-rendering="crispEdges">
  <!-- Pixel Pink Heart Background -->
  <rect x="6" y="4" width="8" height="2" fill="#ff1493"/>
  <rect x="18" y="4" width="8" height="2" fill="#ff1493"/>
  <rect x="4" y="6" width="12" height="4" fill="#ff69b4"/>
  <rect x="16" y="6" width="12" height="4" fill="#ff69b4"/>
  <rect x="2" y="10" width="28" height="6" fill="#ff69b4"/>
  <rect x="4" y="16" width="24" height="4" fill="#ff69b4"/>
  <rect x="8" y="20" width="16" height="4" fill="#ff69b4"/>
  <rect x="12" y="24" width="8" height="4" fill="#ff69b4"/>
  <rect x="14" y="28" width="4" height="2" fill="#ff1493"/>

  <!-- Cute Pixel Cat Face inside Heart -->
  <rect x="8" y="10" width="3" height="3" fill="#ffffff"/>
  <rect x="21" y="10" width="3" height="3" fill="#ffffff"/>
  <!-- Eyes -->
  <rect x="10" y="14" width="2" height="3" fill="#2b1055"/>
  <rect x="20" y="14" width="2" height="3" fill="#2b1055"/>
  <!-- Cheeks Blush -->
  <rect x="7" y="17" width="3" height="2" fill="#ff1493"/>
  <rect x="22" y="17" width="3" height="2" fill="#ff1493"/>
  <!-- Nose & Mouth -->
  <rect x="15" y="16" width="2" height="1" fill="#e03168"/>
  <rect x="14" y="18" width="1" height="1" fill="#2b1055"/>
  <rect x="17" y="18" width="1" height="1" fill="#2b1055"/>
  <rect x="15" y="19" width="2" height="1" fill="#2b1055"/>
</svg>
